<?xml version="1.0" encoding="UTF-8"?>
<svg id="Capa_1" xmlns="http://www.w3.org/2000/svg" version="1.1" viewBox="0 0 120 120">
  <!-- Generator: Adobe Illustrator 30.4.0, SVG Export Plug-In . SVG Version: 2.1.4 Build 226)  -->
  <defs>
    <style>
      .st0 {
        fill: #fffffe;
      }
    </style>
  </defs>
  <circle class="st0" cx="60" cy="60" r="60"/>
  <path d="M44.52,22.87c-11.94,0-21.65,9.72-21.65,21.67v30.94c0,11.94,9.72,21.65,21.67,21.65h30.94c11.94,0,21.65-9.72,21.65-21.67v-30.94c0-11.94-9.72-21.65-21.67-21.65,0,0-30.94,0-30.94,0ZM81.66,35.25c1.71,0,3.09,1.39,3.09,3.09s-1.39,3.09-3.09,3.09-3.09-1.39-3.09-3.09,1.39-3.09,3.09-3.09ZM60,41.43c10.24,0,18.57,8.33,18.57,18.57s-8.33,18.57-18.57,18.57-18.57-8.33-18.57-18.57,8.33-18.57,18.57-18.57ZM60,47.62c-6.84,0-12.38,5.54-12.38,12.38s5.54,12.38,12.38,12.38,12.38-5.54,12.38-12.38-5.54-12.38-12.38-12.38Z"/>
</svg>